<svg width="24" height="24" viewBox="0 0 24 24" fill="none" xmlns="http://www.w3.org/2000/svg">
<path d="M19 11.8105V9.414C18.9999 9.1488 18.8946 8.89449 18.707 8.707L13.293 3.293C13.1055 3.10545 12.8512 3.00006 12.586 3H7C6.46957 3 5.96086 3.21071 5.58579 3.58579C5.21071 3.96086 5 4.46957 5 5V19C5 19.5304 5.21071 20.0391 5.58579 20.4142C5.96086 20.7893 6.46957 21 7 21H12" stroke="white" stroke-width="1.25" stroke-linecap="round" stroke-linejoin="round"/>
<path d="M18.6002 14.0176C19.1928 14.0176 20.3779 14.6398 20.3779 15.3509C20.3779 16.0621 20.3779 16.388 20.3779 16.6843C20.3779 16.9806 20.7335 18.0176 22.1557 18.0176C20.8224 18.0176 20.3779 18.4621 20.3779 19.3509C20.3779 20.0621 20.3779 20.388 20.3779 20.6843C20.3779 20.9806 20.0224 22.0176 18.6002 22.0176" stroke="white" stroke-width="1.25" stroke-linecap="round" stroke-linejoin="round"/>
<path d="M15.8224 14.0176C15.2298 14.0176 14.0446 14.6398 14.0446 15.3509C14.0446 16.0621 14.0446 16.388 14.0446 16.6843C14.0446 16.9806 13.6891 18.0176 12.2668 18.0176C13.6002 18.0176 14.0446 18.4621 14.0446 19.3509C14.0446 20.0621 14.0446 20.388 14.0446 20.6843C14.0446 20.9806 14.4002 22.0176 15.8224 22.0176" stroke="white" stroke-width="1.25" stroke-linecap="round" stroke-linejoin="round"/>
<path d="M12 8.49111C12.6872 8.49111 13.2443 7.934 13.2443 7.24676C13.2443 6.55953 12.6872 6.00241 12 6.00241C11.3128 6.00241 10.7557 6.55953 10.7557 7.24676C10.7557 7.934 11.3128 8.49111 12 8.49111Z" fill="white"/>
<path d="M10.0272 11.0024H13.9728C14.41 11.0024 14.7468 10.6265 14.5426 10.2399C14.2422 9.67119 13.5575 8.99231 12 8.99231C10.4425 8.99231 9.75775 9.67119 9.45741 10.2399C9.25323 10.6265 9.59001 11.0024 10.0272 11.0024Z" fill="white"/>
</svg>
