<svg width="64" height="64" viewBox="0 0 64 64" fill="none" xmlns="http://www.w3.org/2000/svg">
  <path d="M58.2008 31.9261V34.2159C56.1449 34.2159 54.7045 34.6468 53.8797 35.5085C53.0672 36.3703 52.661 37.8106 52.661 39.8295V45.7386C52.661 47.4375 52.4948 48.9086 52.1624 50.152C51.8423 51.3954 51.313 52.4233 50.5743 53.2358C49.8357 54.0483 48.8509 54.6515 47.6198 55.0455C46.3887 55.4394 44.8684 55.6364 43.0587 55.6364V52.017C44.4867 52.017 45.607 51.7893 46.4195 51.3338C47.2443 50.8906 47.8229 50.2074 48.1553 49.2841C48.5 48.3608 48.6724 47.179 48.6724 45.7386V38.3523C48.6724 37.392 48.7955 36.518 49.0417 35.7301C49.3002 34.9422 49.768 34.2651 50.4451 33.6989C51.1222 33.1326 52.0824 32.6955 53.3258 32.3878C54.5814 32.08 56.2064 31.9261 58.2008 31.9261ZM43.0587 8.36363C44.8684 8.36363 46.3887 8.5606 47.6198 8.95454C48.8509 9.34848 49.8357 9.9517 50.5743 10.7642C51.313 11.5767 51.8423 12.6046 52.1624 13.848C52.4948 15.0914 52.661 16.5625 52.661 18.2614V24.1705C52.661 26.1894 53.0672 27.6297 53.8797 28.4915C54.7045 29.3532 56.1449 29.7841 58.2008 29.7841V32.0739C56.2064 32.0739 54.5814 31.92 53.3258 31.6122C52.0824 31.3044 51.1222 30.8674 50.4451 30.3011C49.768 29.7348 49.3002 29.0578 49.0417 28.2699C48.7955 27.482 48.6724 26.608 48.6724 25.6477V18.2614C48.6724 16.821 48.5 15.6392 48.1553 14.7159C47.8229 13.7803 47.2443 13.0909 46.4195 12.6477C45.607 12.2045 44.4867 11.983 43.0587 11.983V8.36363ZM58.2008 29.7841V34.2159H53.8428V29.7841H58.2008Z" fill="white"/>
  <path d="M32 32C33.1867 32 34.3467 31.6481 35.3334 30.9888C36.3201 30.3295 37.0892 29.3925 37.5433 28.2961C37.9974 27.1997 38.1162 25.9933 37.8847 24.8295C37.6532 23.6656 37.0818 22.5965 36.2426 21.7574C35.4035 20.9182 34.3344 20.3468 33.1705 20.1153C32.0067 19.8838 30.8003 20.0026 29.7039 20.4567C28.6075 20.9109 27.6705 21.6799 27.0112 22.6666C26.3519 23.6533 26 24.8133 26 26C26 27.5913 26.6321 29.1174 27.7574 30.2426C28.8826 31.3679 30.4087 32 32 32ZM32 33.7143C28.2811 33.7143 20.8571 36.0114 20.8571 40.5714V44H43.1429V40.5714C43.1429 36.0114 35.7189 33.7143 32 33.7143Z" fill="white"/>
  <path d="M5.79924 32.0739V29.7841C7.85511 29.7841 9.2893 29.3532 10.1018 28.4915C10.9266 27.6297 11.339 26.1894 11.339 24.1705V18.2614C11.339 16.5625 11.4991 15.0914 11.8191 13.848C12.1515 12.6046 12.687 11.5767 13.4257 10.7642C14.1643 9.9517 15.1491 9.34848 16.3802 8.95454C17.6113 8.5606 19.1316 8.36363 20.9413 8.36363V11.983C19.5133 11.983 18.3868 12.2045 17.562 12.6477C16.7495 13.0909 16.1709 13.7803 15.8262 14.7159C15.4938 15.6392 15.3277 16.821 15.3277 18.2614V25.6477C15.3277 26.608 15.1984 27.482 14.9399 28.2699C14.6937 29.0578 14.232 29.7348 13.5549 30.3011C12.8778 30.8674 11.9115 31.3044 10.6558 31.6122C9.4124 31.92 7.79356 32.0739 5.79924 32.0739ZM20.9413 55.6364C19.1316 55.6364 17.6113 55.4394 16.3802 55.0455C15.1491 54.6515 14.1643 54.0483 13.4257 53.2358C12.687 52.4233 12.1515 51.3954 11.8191 50.152C11.4991 48.9086 11.339 47.4375 11.339 45.7386V39.8295C11.339 37.8106 10.9266 36.3703 10.1018 35.5085C9.2893 34.6468 7.85511 34.2159 5.79924 34.2159V31.9261C7.79356 31.9261 9.4124 32.08 10.6558 32.3878C11.9115 32.6955 12.8778 33.1326 13.5549 33.6989C14.232 34.2651 14.6937 34.9422 14.9399 35.7301C15.1984 36.518 15.3277 37.392 15.3277 38.3523V45.7386C15.3277 47.179 15.4938 48.3608 15.8262 49.2841C16.1709 50.2074 16.7495 50.8906 17.562 51.3338C18.3868 51.7893 19.5133 52.017 20.9413 52.017V55.6364ZM5.79924 34.2159V29.7841H10.1572V34.2159H5.79924Z" fill="white"/>
</svg>
